<?xml version="1.0" encoding="iso-8859-1"?>
<!-- Generator: Adobe Illustrator 19.0.0, SVG Export Plug-In . SVG Version: 6.00 Build 0)  -->
<svg version="1.1" id="Layer_1" xmlns="http://www.w3.org/2000/svg" xmlns:xlink="http://www.w3.org/1999/xlink" x="0px" y="0px"
	 preserveAspectRatio="none" viewBox="0 0 1024 800" style="enable-background:new 0 0 330 330;" xml:space="preserve">
<path id="XMLID_230_" d="M330,45c0-24.813-20.187-45-45-45H45C20.187,0,0,20.187,0,45c0,19.555,12.541,36.228,30,42.42V315
	c0,8.284,6.716,15,15,15h240c8.284,0,15-6.716,15-15V87.42C317.458,81.228,330,64.555,330,45z M135,180c24.813,0,45-20.187,45-45V90
	h90v45c0,57.897-47.103,105-105,105S60,192.897,60,135V90h30v45C90,159.813,110.187,180,135,180z M270,300H60v-80.251
	C84.769,250.376,122.633,270,165,270s80.231-19.624,105-50.251V300z M285.005,60c-0.002,0-0.003,0-0.005,0c-0.003,0-0.006,0-0.01,0
	H165c-8.284,0-15,6.716-15,15v60c0,8.271-6.729,15-15,15s-15-6.729-15-15V75c0-8.284-6.716-15-15-15H45.01c-0.003,0-0.006,0-0.01,0
	c-0.002,0-0.003,0-0.005,0C36.727,59.997,30,53.27,30,45c0-8.271,6.729-15,15-15h240c8.271,0,15,6.729,15,15
	C300,53.27,293.273,59.997,285.005,60z"/>
<g>
</g>
<g>
</g>
<g>
</g>
<g>
</g>
<g>
</g>
<g>
</g>
<g>
</g>
<g>
</g>
<g>
</g>
<g>
</g>
<g>
</g>
<g>
</g>
<g>
</g>
<g>
</g>
<g>
</g>
</svg>
