<svg id="visual" viewBox="0 0 900 600" width="900" height="600" xmlns="http://www.w3.org/2000/svg" xmlns:xlink="http://www.w3.org/1999/xlink" version="1.1"><path d="M0 433L21.5 428.5C43 424 86 415 128.8 401.5C171.7 388 214.3 370 257.2 363C300 356 343 360 385.8 371.5C428.7 383 471.3 402 514.2 405.8C557 409.7 600 398.3 642.8 397.8C685.7 397.3 728.3 407.7 771.2 405.3C814 403 857 388 878.5 380.5L900 373L900 601L878.5 601C857 601 814 601 771.2 601C728.3 601 685.7 601 642.8 601C600 601 557 601 514.2 601C471.3 601 428.7 601 385.8 601C343 601 300 601 257.2 601C214.3 601 171.7 601 128.8 601C86 601 43 601 21.5 601L0 601Z" fill="#fefefe"></path><path d="M0 426L21.5 426.3C43 426.7 86 427.3 128.8 427.7C171.7 428 214.3 428 257.2 436.7C300 445.3 343 462.7 385.8 462C428.7 461.3 471.3 442.7 514.2 429.8C557 417 600 410 642.8 411.5C685.7 413 728.3 423 771.2 429C814 435 857 437 878.5 438L900 439L900 601L878.5 601C857 601 814 601 771.2 601C728.3 601 685.7 601 642.8 601C600 601 557 601 514.2 601C471.3 601 428.7 601 385.8 601C343 601 300 601 257.2 601C214.3 601 171.7 601 128.8 601C86 601 43 601 21.5 601L0 601Z" fill="#cfe7ea"></path><path d="M0 468L21.5 471C43 474 86 480 128.8 484.8C171.7 489.7 214.3 493.3 257.2 490.5C300 487.7 343 478.3 385.8 477.7C428.7 477 471.3 485 514.2 483.7C557 482.3 600 471.7 642.8 462.7C685.7 453.7 728.3 446.3 771.2 447.3C814 448.3 857 457.7 878.5 462.3L900 467L900 601L878.5 601C857 601 814 601 771.2 601C728.3 601 685.7 601 642.8 601C600 601 557 601 514.2 601C471.3 601 428.7 601 385.8 601C343 601 300 601 257.2 601C214.3 601 171.7 601 128.8 601C86 601 43 601 21.5 601L0 601Z" fill="#9fd1d6"></path><path d="M0 525L21.5 525.8C43 526.7 86 528.3 128.8 521.5C171.7 514.7 214.3 499.3 257.2 497.3C300 495.3 343 506.7 385.8 513.8C428.7 521 471.3 524 514.2 525.2C557 526.3 600 525.7 642.8 525.2C685.7 524.7 728.3 524.3 771.2 517.2C814 510 857 496 878.5 489L900 482L900 601L878.5 601C857 601 814 601 771.2 601C728.3 601 685.7 601 642.8 601C600 601 557 601 514.2 601C471.3 601 428.7 601 385.8 601C343 601 300 601 257.2 601C214.3 601 171.7 601 128.8 601C86 601 43 601 21.5 601L0 601Z" fill="#6abac3"></path><path d="M0 550L21.5 549C43 548 86 546 128.8 543.7C171.7 541.3 214.3 538.7 257.2 542.7C300 546.7 343 557.3 385.8 556.5C428.7 555.7 471.3 543.3 514.2 543.3C557 543.3 600 555.7 642.8 555.7C685.7 555.7 728.3 543.3 771.2 543.2C814 543 857 555 878.5 561L900 567L900 601L878.5 601C857 601 814 601 771.2 601C728.3 601 685.7 601 642.8 601C600 601 557 601 514.2 601C471.3 601 428.7 601 385.8 601C343 601 300 601 257.2 601C214.3 601 171.7 601 128.8 601C86 601 43 601 21.5 601L0 601Z" fill="#19a4b0"></path></svg>